<svg width="20" height="13" viewBox="0 0 20 13" fill="none" xmlns="http://www.w3.org/2000/svg">
<path d="M0.256 12L4.624 0.799999H6.576L10.912 12H8.752L6.352 5.632C6.29867 5.504 6.224 5.30133 6.128 5.024C6.04267 4.74667 5.94667 4.448 5.84 4.128C5.73333 3.79733 5.63733 3.49333 5.552 3.216C5.46667 2.928 5.40267 2.72 5.36 2.592L5.76 2.576C5.696 2.78933 5.62133 3.02933 5.536 3.296C5.45067 3.56267 5.36 3.84 5.264 4.128C5.168 4.416 5.072 4.69333 4.976 4.96C4.89067 5.22667 4.81067 5.46667 4.736 5.68L2.336 12H0.256ZM2.24 9.44L2.96 7.632H8.064L8.832 9.44H2.24ZM14.7874 12.16C14.094 12.16 13.4647 11.968 12.8994 11.584C12.334 11.2 11.8807 10.6773 11.5394 10.016C11.198 9.35467 11.0274 8.60267 11.0274 7.76C11.0274 6.91733 11.198 6.16533 11.5394 5.504C11.8807 4.84267 12.3447 4.32533 12.9314 3.952C13.518 3.57867 14.1794 3.392 14.9154 3.392C15.342 3.392 15.7314 3.456 16.0834 3.584C16.4354 3.70133 16.7447 3.872 17.0114 4.096C17.278 4.32 17.4967 4.576 17.6674 4.864C17.8487 5.152 17.9714 5.46133 18.0354 5.792L17.6034 5.68V3.568H19.5874V12H17.5874V9.984L18.0514 9.904C17.9767 10.192 17.838 10.4747 17.6354 10.752C17.4434 11.0187 17.198 11.2587 16.8994 11.472C16.6114 11.6747 16.286 11.84 15.9234 11.968C15.5714 12.096 15.1927 12.16 14.7874 12.16ZM15.3314 10.416C15.79 10.416 16.1954 10.304 16.5474 10.08C16.8994 9.856 17.1714 9.54667 17.3634 9.152C17.566 8.74667 17.6674 8.28267 17.6674 7.76C17.6674 7.248 17.566 6.79467 17.3634 6.4C17.1714 6.00533 16.8994 5.696 16.5474 5.472C16.1954 5.248 15.79 5.136 15.3314 5.136C14.8727 5.136 14.4674 5.248 14.1154 5.472C13.774 5.696 13.5074 6.00533 13.3154 6.4C13.1234 6.79467 13.0274 7.248 13.0274 7.76C13.0274 8.28267 13.1234 8.74667 13.3154 9.152C13.5074 9.54667 13.774 9.856 14.1154 10.08C14.4674 10.304 14.8727 10.416 15.3314 10.416Z" fill="#666666"/>
</svg>
