<svg width="24" height="24" viewBox="0 0 24 24" fill="none" xmlns="http://www.w3.org/2000/svg">
<path d="M8.2222 12.7778C9.87243 12.7778 11.4551 13.4333 12.622 14.6002C12.8323 14.8106 13.0261 15.0345 13.2024 15.2698C14.5267 17.0379 12.6536 19 10.4444 19L5.99998 19C3.79084 19 1.91765 17.0379 3.24204 15.2698C3.41832 15.0344 3.61206 14.8106 3.82242 14.6002C4.98932 13.4333 6.57196 12.7778 8.2222 12.7778ZM8.2222 12.7778C10.37 12.7778 12.1111 11.0367 12.1111 8.88889C12.1111 6.74111 10.37 5 8.22218 5C6.0744 5 4.33329 6.74111 4.33329 8.88889C4.33329 11.0367 6.07442 12.7778 8.2222 12.7778ZM16 10H21M17 14H21" stroke="#666666" stroke-width="2" stroke-linecap="round" stroke-linejoin="round"/>
</svg>
